Coordinates
version=1
nRows=8
nColumns=42
inDegrees=yes

Units are S.I. units (second, meters, Newtons, ...)
If the header above contains a line with 'inDegrees', this indicates whether rotational values are in degrees (yes) or radians (no).

endheader
time	pelvis_tilt	pelvis_list	pelvis_rotation	pelvis_tx	pelvis_ty	pelvis_tz	hip_flexion_r	hip_adduction_r	hip_rotation_r	knee_angle_r	knee_adduction_r	knee_angle_r_beta	ankle_angle_r	subtalar_angle_r	mtp_angle_r	hip_flexion_l	hip_adduction_l	hip_rotation_l	knee_angle_l	knee_adduction_l	knee_angle_l_beta	ankle_angle_l	subtalar_angle_l	mtp_angle_l	lumbar_extension	lumbar_bending	lumbar_rotation	arm_flex_r	arm_add_r	arm_rot_r	elbow_flex_r	pro_sup_r	wrist_flex_r	wrist_dev_r	arm_flex_l	arm_add_l	arm_rot_l	elbow_flex_l	pro_sup_l	wrist_flex_l	wrist_dev_l
      1.11000000	      0.98967059	     -5.68347193	      3.38421161	      0.54227703	      0.97297583	     -0.22996389	      9.54496678	      8.21780670	     -6.32132452	     14.73949934	     -0.37604102	      0.25725279	      2.82232530	     -3.40693031	     -7.55467225	      3.69625972	     -9.02257306	    -10.82507893	     56.37973809	     -5.79976140	      0.98401206	     -9.91717600	    -17.32381748	     -7.55467225	    -12.35473099	      8.43152695	      4.02892590	    -10.49695679	    -10.47386590	     -8.94509574	     32.94301824	     90.00000001	      0.00000000	      0.00000000	      6.60040208	    -10.56015675	      9.49734584	     49.65106989	     90.00000001	      0.00000000	      0.00000000
      1.12000000	      0.89039412	     -5.26806193	      3.47023327	      0.55622556	      0.97504928	     -0.22948726	      8.17068617	      7.81435254	     -6.20586930	     13.75365534	     -0.21488756	      0.24004657	      3.25441488	     -2.94243940	     -7.55373535	      5.76188869	     -8.57130868	    -11.24821158	     57.37185701	     -6.38707578	      1.00132780	     -8.56789003	    -17.35735339	     -7.55373535	    -12.31858147	      7.95158781	      4.30155668	    -10.03716312	    -10.50856320	     -8.73432158	     33.30121714	     90.00000001	      0.00000000	      0.00000000	      6.07687615	    -10.66001204	      9.45243220	     49.54825718	     90.00000001	      0.00000000	      0.00000000
      1.13000000	      0.85799701	     -4.83787531	      3.45042138	      0.56988616	      0.97694799	     -0.22865836	      6.87405947	      7.46165282	     -6.25977777	     13.00904611	     -0.18639338	      0.22705069	      3.57837824	     -2.57413986	     -7.55313315	      7.71632165	     -8.13537872	    -11.49684186	     58.10349396	     -6.64873800	      1.01409728	     -7.48016449	    -17.20662830	     -7.55313315	    -12.42089124	      7.39361619	      4.73911164	     -9.52347858	    -10.49563576	     -8.54788507	     33.68264283	     90.00000001	      0.00000000	      0.00000000	      5.63476853	    -10.80198217	      9.38888930	     49.44899762	     90.00000001	      0.00000000	      0.00000000
      1.14000000	      0.53441016	     -4.39299661	      3.52938539	      0.58364980	      0.97830980	     -0.22838856	      5.68219321	      6.99864261	     -5.82825989	     11.86696324	      0.01926307	      0.20711758	      4.08944976	     -1.97499502	     -7.55230464	      9.90575909	     -7.48873906	    -11.48761110	     58.41077475	     -6.87642438	      1.01946034	     -6.08533624	    -16.78003345	     -7.55230464	    -12.14197328	      6.89927672	      4.88519498	     -9.04367873	    -10.62146723	     -8.18547688	     34.17336374	     90.00000001	      0.00000000	      0.00000000	      4.95354390	    -10.96918107	      9.32925396	     49.33547215	     90.00000001	      0.00000000	      0.00000000
      1.15000000	      0.29124708	     -4.06775167	      3.46191762	      0.59728850	      0.97947476	     -0.22762999	      4.41702715	      6.73917019	     -4.98819921	     10.71268335	      0.23507883	      0.18697160	      4.15258117	     -2.52417008	     -7.54762885	     11.92982261	     -7.08553614	    -11.34303851	     58.46543762	     -6.71902636	      1.02041439	     -4.72694154	    -15.67540177	     -7.54762885	    -11.98821910	      6.45804291	      5.19669313	     -8.54790091	    -10.87860787	     -7.14570672	     34.70580330	     90.00000001	      0.00000000	      0.00000000	      4.28385263	    -11.11902416	      9.06442559	     49.24324574	     90.00000001	      0.00000000	      0.00000000
      1.16000000	      0.07895180	     -3.60657761	      3.42024115	      0.61082942	      0.98039694	     -0.22705360	      3.30937726	      6.30286831	     -4.72418915	      9.91931907	      0.33062731	      0.17312478	      4.54738256	     -2.21622432	     -7.54596323	     13.80910587	     -6.44056622	    -10.89643211	     58.14682905	     -6.32522248	      1.01485362	     -3.62649118	    -14.80296867	     -7.54596323	    -11.88659121	      5.88329051	      5.48701946	     -8.01429045	    -11.01034632	     -6.69965589	     35.26926009	     90.00000001	      0.00000000	      0.00000000	      3.65919247	    -11.31880699	      8.92660028	     49.10739027	     90.00000001	      0.00000000	      0.00000000
      1.17000000	     -0.19607927	     -3.25269429	      3.25793308	      0.62460275	      0.98085903	     -0.22613899	      2.36437089	      6.04080707	     -4.70787254	      9.29063130	      0.27653263	      0.16215211	      4.91932591	     -1.86335715	     -7.54537457	     15.64968193	     -5.96856912	    -10.56053418	     57.51073353	     -5.86930032	      1.00375166	     -2.96744838	    -14.11661350	     -7.54537457	    -11.67578299	      5.38116990	      5.93697676	     -7.56365465	    -11.08015697	     -6.47408326	     35.90020766	     90.00000001	      0.00000000	      0.00000000	      2.98943294	    -11.55190027	      8.82826043	     48.91757392	     90.00000001	      0.00000000	      0.00000000
      1.18000000	     -0.25371903	     -2.85730380	      3.19921308	      0.63808224	      0.98134574	     -0.22564694	      1.08088184	      5.63168983	     -4.08431205	      8.46898273	      0.51413946	      0.14781163	      5.26358003	     -1.80775844	     -7.54324270	     17.14367698	     -5.37122639	     -9.83389760	     56.51685691	     -5.17524617	      0.98640524	     -1.76408263	    -12.66303888	     -7.54324270	    -11.77283912	      4.89401941	      6.14503070	     -6.97392123	    -11.43106355	     -5.40971237	     36.64593514	     90.00000001	      0.00000000	      0.00000000	      2.32319945	    -11.73335757	      8.45306887	     48.77506266	     90.00000001	      0.00000000	      0.00000000
